<svg width="222" height="27" viewBox="0 0 222 27" fill="none" xmlns="http://www.w3.org/2000/svg">
<path d="M13.8486 26.5569C13.8486 26.5569 13.8859 26.5569 13.8486 26.5569L29.3767 17.4392C29.414 17.3993 29.4514 17.3993 29.526 17.3595C30.2726 16.8419 30.6458 16.0058 30.6458 15.0502V14.8113C30.6458 13.8558 30.2352 13.0196 29.526 12.502C29.4887 12.4622 29.4514 12.4224 29.3767 12.4224L13.9232 3.26485C13.1767 2.78706 12.3181 2.78706 11.6089 3.18522C10.8624 3.62319 10.4518 4.45931 10.4518 5.49451V8.08252L12.0942 8.95846V5.49451C12.0942 4.73802 12.5421 4.45931 13.102 4.77783L28.6302 13.9354C28.8541 14.0947 29.0408 14.3335 29.0408 14.7715V15.0104C29.0408 15.4484 28.8168 15.7271 28.6302 15.8465L13.102 25.0041C12.5794 25.3226 12.0942 25.0439 12.0942 24.2874V20.8633L10.4518 21.7392V24.2874C10.4518 25.2828 10.8624 26.0791 11.5343 26.5569C12.2062 26.9949 13.0647 26.9949 13.8486 26.5569Z" fill="white"/>
<path d="M18.589 15.0503C18.589 15.4485 18.365 15.6476 18.1784 15.8068L2.65024 23.8097C2.12765 24.0884 1.6424 23.8495 1.6424 23.2125V19.3902C1.6424 18.9522 1.86636 18.7133 2.09033 18.5939L9.77975 15.0105C9.77975 14.9707 9.77975 14.9309 9.77975 14.9309L2.09033 11.1086C1.67973 10.8697 1.6424 10.5512 1.6424 10.0336V6.6095C1.6424 5.93264 2.09033 5.69375 2.65024 6.01227L18.1784 14.055C18.4023 14.1744 18.589 14.4133 18.589 14.8114V15.0503V15.0503ZM20.2314 15.0503V14.8114C20.2314 13.8559 19.7835 13.0596 18.9996 12.542C18.9623 12.5022 18.9249 12.5022 18.8876 12.4623L3.39678 4.41966C2.61291 3.98169 1.79171 3.98169 1.08249 4.41966C0.4106 4.89745 0 5.69375 0 6.6095V10.0336C0 10.5114 0 11.9447 1.38111 12.6614C1.38111 12.6614 1.41844 12.6614 1.41844 12.7012L5.82306 14.8911L1.45576 16.9217C1.41844 16.9217 1.41844 16.9615 1.38111 16.9615C0.485255 17.4393 0 18.3152 0 19.3504V23.1727C0 24.0884 0.373273 24.8449 1.00784 25.2829C1.67973 25.7208 2.50093 25.7606 3.32213 25.3625H3.35945L18.8876 17.3596C18.9249 17.3198 18.9623 17.3198 19.0369 17.28C19.7835 16.8022 20.2314 15.9661 20.2314 15.0503Z" fill="white"/>
<path d="M34.9381 9.63502C34.7888 9.23686 34.9008 8.91833 35.3114 8.91833H37.7377C37.999 8.91833 38.1483 9.0776 38.2229 9.23686L40.4999 14.7713C40.5372 14.7713 40.5372 14.7713 40.5372 14.7713L42.9262 9.23686C43.0755 8.95815 43.2994 8.91833 43.5981 8.91833H45.763C46.1736 8.91833 46.3603 9.23686 46.1363 9.63502L41.0225 20.8233C40.9478 20.9826 40.7985 21.1021 40.5372 21.1021H40.3879C40.1266 21.1021 40.0146 20.9428 39.9027 20.8233L34.9381 9.63502Z" fill="white"/>
<path d="M52.9673 8.63977C55.8415 8.63977 58.1931 10.9491 58.1931 14.1741C58.1931 14.3732 58.1558 14.7714 58.1185 14.9704C58.0811 15.2492 57.8572 15.4881 57.5959 15.4881H50.429C50.5037 16.7223 51.4742 18.0761 53.1166 18.0761C53.9751 18.0761 54.7963 17.7177 55.2816 17.3196C55.5429 17.1603 55.8042 17.0807 55.9908 17.3196L57.148 18.7131C57.3346 18.9122 57.4092 19.2307 57.1106 19.4696C56.1774 20.3854 54.759 21.1021 52.9673 21.1021C49.6078 21.1021 47.2562 18.2751 47.2562 14.851C47.2562 11.5463 49.6452 8.63977 52.9673 8.63977ZM54.9083 13.4176C54.8337 12.3028 53.9378 11.387 52.8553 11.387C51.7355 11.387 50.8023 12.263 50.6903 13.4176H54.9083Z" fill="white"/>
<path d="M60.5074 9.51572C60.5074 9.19719 60.7687 8.9583 61.03 8.9583H62.0752C62.3365 8.9583 62.4858 9.11756 62.5604 9.27683L62.9337 10.3917C63.419 9.83425 64.6881 8.63977 66.6664 8.63977C68.2715 8.63977 69.3913 9.27683 70.2872 10.4713C70.7724 9.9537 72.2282 8.63977 74.2065 8.63977C77.79 8.63977 79.0964 11.4667 79.0964 14.6122V20.3059C79.0964 20.5846 78.8724 20.8633 78.5738 20.8633H76.2969C75.9982 20.8633 75.7743 20.5846 75.7743 20.3059V14.3733C75.7743 12.8204 75.0651 11.8251 73.684 11.8251C72.0789 11.8251 71.3323 13.0593 71.3323 13.0593C71.3323 13.0593 71.3697 13.6566 71.3697 14.1742V20.2262C71.3697 20.5049 71.1084 20.7836 70.8471 20.7836H68.7568C68.4581 20.7836 68.2342 20.5049 68.2342 20.2262V14.3733C68.2342 12.8204 67.5996 11.8251 66.1812 11.8251C64.8001 11.8251 64.1282 12.9001 63.8296 13.6964V20.266C63.8296 20.5448 63.5683 20.8235 63.307 20.8235H61.03C60.7687 20.8235 60.5074 20.5448 60.5074 20.266V9.51572V9.51572Z" fill="white"/>
<path d="M80.6643 9.63525C80.515 9.2371 80.627 8.91858 81.0376 8.91858H83.4639C83.7252 8.91858 83.8745 9.07784 83.9491 9.2371L86.2261 14.7714C86.2634 14.7714 86.2634 14.7714 86.2634 14.7714L88.6524 9.2371C88.8017 8.95839 89.0257 8.91858 89.3243 8.91858H91.4893C91.8999 8.91858 92.0865 9.2371 91.8625 9.63525L86.7487 20.8233C86.674 20.9826 86.5247 21.1021 86.2634 21.1021H86.2261C85.9648 21.1021 85.8528 20.9428 85.7409 20.8233L80.6643 9.63525Z" fill="white"/>
<path d="M98.6558 8.63977C101.53 8.63977 103.882 10.9491 103.882 14.1742C103.882 14.3733 103.844 14.7714 103.807 14.9705C103.77 15.2492 103.546 15.4881 103.284 15.4881H96.1175C96.1922 16.7224 97.1627 18.0762 98.8051 18.0762C99.6636 18.0762 100.485 17.7178 100.97 17.3197C101.231 17.1604 101.493 17.0808 101.679 17.3197L102.836 18.7132C103.023 18.9123 103.098 19.2308 102.799 19.4697C101.866 20.3855 100.447 21.1022 98.6558 21.1022C95.2963 21.1022 92.9447 18.2752 92.9447 14.8511C92.982 11.5463 95.3336 8.63977 98.6558 8.63977ZM100.634 13.4177C100.559 12.3028 99.6636 11.3871 98.5811 11.3871C97.4613 11.3871 96.5281 12.263 96.4161 13.4177H100.634Z" fill="white"/>
<path d="M106.233 9.51581C106.233 9.19729 106.495 8.95839 106.756 8.95839H107.801C108.062 8.95839 108.174 9.11765 108.286 9.31673L108.66 10.4316C109.07 9.95377 110.451 8.67969 112.579 8.67969C116.125 8.67969 117.544 11.5066 117.544 14.6122V20.3455C117.544 20.6242 117.282 20.903 117.021 20.903H114.744C114.445 20.903 114.221 20.6242 114.221 20.3455V14.3733C114.221 12.8205 113.475 11.8251 112.131 11.8251C110.675 11.8251 109.779 12.9001 109.518 13.6964V20.2659C109.518 20.6641 109.369 20.8233 108.809 20.8233H106.756C106.495 20.8233 106.233 20.5446 106.233 20.2659V9.51581Z" fill="white"/>
<path d="M125.42 8.63989C126.54 8.63989 127.398 8.95841 127.921 9.15748V0.557412C127.921 0.278706 128.182 0 128.443 0H130.832C131.093 0 131.355 0.278706 131.355 0.557412V20.2659C131.355 20.5446 131.093 20.8233 130.832 20.8233H129.75C129.488 20.8233 129.302 20.5844 129.227 20.2659L128.966 19.3502C128.966 19.3502 127.659 21.1418 125.308 21.1418C122.247 21.1418 119.933 18.315 119.933 14.8909C119.895 11.4269 122.098 8.63989 125.42 8.63989ZM125.681 17.9168C127.174 17.9168 127.846 16.6825 128.033 15.9659V12.502C128.033 12.502 127.249 11.8251 125.868 11.8251C124.3 11.8251 123.143 13.1788 123.143 14.8511C123.143 16.5233 124.188 17.9168 125.681 17.9168Z" fill="white"/>
<path d="M139.567 8.63977C142.441 8.63977 144.792 10.9491 144.792 14.1742C144.792 14.3733 144.755 14.7714 144.718 14.9705C144.68 15.2492 144.456 15.4881 144.195 15.4881H137.028C137.103 16.7224 138.073 18.0762 139.716 18.0762C140.574 18.0762 141.396 17.7178 141.881 17.3197C142.142 17.1604 142.403 17.0808 142.59 17.3197L143.747 18.7132C143.934 18.9123 144.008 19.2308 143.71 19.4697C142.777 20.3855 141.358 21.1022 139.567 21.1022C136.207 21.1022 133.855 18.2752 133.855 14.8511C133.855 11.5463 136.244 8.63977 139.567 8.63977ZM141.508 13.4177C141.433 12.3028 140.537 11.3871 139.455 11.3871C138.335 11.3871 137.402 12.263 137.29 13.4177H141.508Z" fill="white"/>
<path d="M147.107 9.51581C147.107 9.19728 147.368 8.95839 147.629 8.95839H148.675C148.936 8.95839 149.085 9.11765 149.16 9.35655L149.533 10.5112C149.906 9.91396 150.952 8.67969 152.706 8.67969C154.012 8.67969 155.207 9.11765 154.871 9.87414L153.826 11.8251C153.677 12.1038 153.415 12.2232 153.191 12.1038C153.117 12.064 152.706 11.9445 152.37 11.9445C151.25 11.9445 150.578 12.7408 150.392 13.1788V20.3853C150.392 20.7835 150.13 20.9427 149.757 20.9427H147.592C147.331 20.9427 147.07 20.664 147.07 20.3853V9.51581H147.107Z" fill="white"/>
<g clip-path="url(#clip0)">
<path d="M161.742 8.45166C164.888 8.45166 167.405 11.2559 167.405 14.5275C167.405 17.877 164.851 20.6812 161.742 20.6812C158.633 20.6812 156.079 17.877 156.079 14.5275C156.079 11.2559 158.633 8.45166 161.742 8.45166ZM161.742 17.5264C163.222 17.5264 164.407 16.2022 164.407 14.5275C164.407 12.8917 163.222 11.5675 161.742 11.5675C160.261 11.5675 159.077 12.8917 159.077 14.5275C159.114 16.2022 160.261 17.5264 161.742 17.5264Z" fill="white"/>
<path d="M169.885 9.3085C169.885 8.99692 170.144 8.76323 170.403 8.76323H171.439C171.698 8.76323 171.809 8.91902 171.92 9.11376L172.291 10.2043C172.698 9.73692 174.067 8.4906 176.177 8.4906C179.693 8.4906 181.1 11.2559 181.1 14.2938V19.9022C181.1 20.1749 180.841 20.4475 180.582 20.4475H178.324C178.028 20.4475 177.806 20.1749 177.806 19.9022V14.0601C177.806 12.5411 177.065 11.5675 175.733 11.5675C174.289 11.5675 173.401 12.619 173.142 13.398V19.8243C173.142 20.2138 172.994 20.3696 172.439 20.3696H170.403C170.144 20.3696 169.885 20.097 169.885 19.8243V9.3085V9.3085Z" fill="white"/>
<path d="M184.283 0.545266C184.283 0.272633 184.542 0 184.801 0H187.133C187.392 0 187.651 0.272633 187.651 0.545266V19.8243C187.651 20.0969 187.392 20.3696 187.133 20.3696H184.801C184.542 20.3696 184.283 20.0969 184.283 19.8243V0.545266Z" fill="white"/>
<path d="M190.723 2.60901C190.723 1.51848 191.538 0.58374 192.611 0.58374C193.684 0.58374 194.536 1.47953 194.536 2.60901C194.536 3.73849 193.684 4.63429 192.611 4.63429C191.538 4.59534 190.723 3.69954 190.723 2.60901ZM190.982 9.30799C190.982 8.99641 191.242 8.76273 191.501 8.76273H193.796C194.055 8.76273 194.314 8.99641 194.314 9.30799V19.8628C194.314 20.1354 194.055 20.408 193.796 20.408H191.501C191.242 20.408 190.982 20.1354 190.982 19.8628V9.30799Z" fill="white"/>
<path d="M197.645 9.3085C197.645 8.99692 197.904 8.76323 198.163 8.76323H199.2C199.459 8.76323 199.57 8.91902 199.681 9.11376L200.051 10.2043C200.458 9.73692 201.828 8.4906 203.937 8.4906C207.454 8.4906 208.86 11.2559 208.86 14.2938V19.9022C208.86 20.1749 208.601 20.4475 208.342 20.4475H206.084C205.788 20.4475 205.566 20.1749 205.566 19.9022V14.0601C205.566 12.5411 204.826 11.5675 203.493 11.5675C202.05 11.5675 201.161 12.619 200.902 13.398V19.8243C200.902 20.2138 200.754 20.3696 200.199 20.3696H198.163C197.904 20.3696 197.645 20.097 197.645 19.8243V9.3085V9.3085Z" fill="white"/>
<path d="M216.818 8.45166C219.668 8.45166 222 10.7106 222 13.8654C222 14.0601 221.963 14.4496 221.926 14.6443C221.889 14.917 221.667 15.1506 221.408 15.1506H214.301C214.375 16.358 215.337 17.6822 216.966 17.6822C217.817 17.6822 218.632 17.3317 219.113 16.9422C219.372 16.7864 219.631 16.7085 219.816 16.9422L220.964 18.3054C221.149 18.5001 221.223 18.8117 220.927 19.0454C220.001 19.9412 218.595 20.6422 216.818 20.6422C213.487 20.6422 211.155 17.877 211.155 14.5275C211.192 11.2948 213.524 8.45166 216.818 8.45166ZM218.78 13.1254C218.706 12.0348 217.817 11.139 216.744 11.139C215.634 11.139 214.708 11.9959 214.597 13.1254H218.78Z" fill="white"/>
</g>
<defs>
<clipPath id="clip0">
<rect width="65.9214" height="20.6812" fill="white" transform="translate(156.079)"/>
</clipPath>
</defs>
</svg>
