<svg width="611" height="68" viewBox="0 0 611 68" fill="none" xmlns="http://www.w3.org/2000/svg">
<g clip-path="url(#clip0)">
<path d="M37.1 66.7C37.1 66.7 37.2 66.7 37.1 66.7L78.7 43.8C78.8 43.7 78.9 43.7 79.1 43.6C81.1 42.3 82.1 40.2 82.1 37.8V37.2C82.1 34.8 81 32.7 79.1 31.4C79 31.3 78.9 31.2 78.7 31.2L37.3 8.20002C35.3 7.00002 33 7.00002 31.1 8.00002C29.1 9.10002 28 11.2 28 13.8V20.3L32.4 22.5V13.8C32.4 11.9 33.6 11.2 35.1 12L76.7 35C77.3 35.4 77.8 36 77.8 37.1V37.7C77.8 38.8 77.2 39.5 76.7 39.8L35.1 62.8C33.7 63.6 32.4 62.9 32.4 61V52.4L28 54.6V61C28 63.5 29.1 65.5 30.9 66.7C32.7 67.8 35 67.8 37.1 66.7Z" fill="url(#paint0_linear)"/>
<path d="M49.8 37.8C49.8 38.8 49.2 39.3 48.7 39.7L7.1 59.8C5.7 60.5 4.4 59.9 4.4 58.3V48.7C4.4 47.6 5 47 5.6 46.7L26.2 37.7C26.2 37.6 26.2 37.5 26.2 37.5L5.6 27.9C4.5 27.3 4.4 26.5 4.4 25.2V16.6C4.4 14.9 5.6 14.3 7.1 15.1L48.7 35.3C49.3 35.6 49.8 36.2 49.8 37.2V37.8ZM54.2 37.8V37.2C54.2 34.8 53 32.8 50.9 31.5C50.8 31.4 50.7 31.4 50.6 31.3L9.1 11.1C7 10 4.8 10 2.9 11.1C1.1 12.3 0 14.3 0 16.6V25.2C0 26.4 0 30 3.7 31.8C3.7 31.8 3.8 31.8 3.8 31.9L15.6 37.4L3.9 42.5C3.8 42.5 3.8 42.6 3.7 42.6C1.3 43.8 0 46 0 48.6V58.2C0 60.5 1 62.4 2.7 63.5C4.5 64.6 6.7 64.7 8.9 63.7H9L50.6 43.6C50.7 43.5 50.8 43.5 51 43.4C53 42.2 54.2 40.1 54.2 37.8Z" fill="url(#paint1_linear)"/>
<path d="M93.6 24.2C93.2 23.2 93.5 22.4 94.6 22.4H101.1C101.8 22.4 102.2 22.8 102.4 23.2L108.5 37.1C108.6 37.1 108.6 37.1 108.6 37.1L115 23.2C115.4 22.5 116 22.4 116.8 22.4H122.6C123.7 22.4 124.2 23.2 123.6 24.2L109.9 52.3C109.7 52.7 109.3 53 108.6 53H108.2C107.5 53 107.2 52.6 106.9 52.3L93.6 24.2Z" fill="url(#paint2_linear)"/>
<path d="M141.9 21.7C149.6 21.7 155.9 27.5 155.9 35.6C155.9 36.1 155.8 37.1 155.7 37.6C155.6 38.3 155 38.9 154.3 38.9H135.1C135.3 42 137.9 45.4 142.3 45.4C144.6 45.4 146.8 44.5 148.1 43.5C148.8 43.1 149.5 42.9 150 43.5L153.1 47C153.6 47.5 153.8 48.3 153 48.9C150.5 51.2 146.7 53 141.9 53C132.9 53 126.6 45.9 126.6 37.3C126.6 29 133 21.7 141.9 21.7ZM147.1 33.7C146.9 30.9 144.5 28.6 141.6 28.6C138.6 28.6 136.1 30.8 135.8 33.7H147.1Z" fill="url(#paint3_linear)"/>
<path d="M162.1 23.9C162.1 23.1 162.8 22.5 163.5 22.5H166.3C167 22.5 167.4 22.9 167.6 23.3L168.6 26.1C169.9 24.7 173.3 21.7 178.6 21.7C182.9 21.7 185.9 23.3 188.3 26.3C189.6 25 193.5 21.7 198.8 21.7C208.4 21.7 211.9 28.8 211.9 36.7V51C211.9 51.7 211.3 52.4 210.5 52.4H204.4C203.6 52.4 203 51.7 203 51V36.1C203 32.2 201.1 29.7 197.4 29.7C193.1 29.7 191.1 32.8 191.1 32.8C191.1 32.8 191.2 34.3 191.2 35.6V50.8C191.2 51.5 190.5 52.2 189.8 52.2H184.2C183.4 52.2 182.8 51.5 182.8 50.8V36.1C182.8 32.2 181.1 29.7 177.3 29.7C173.6 29.7 171.8 32.4 171 34.4V50.9C171 51.6 170.3 52.3 169.6 52.3H163.5C162.8 52.3 162.1 51.6 162.1 50.9V23.9Z" fill="url(#paint4_linear)"/>
<path d="M216.1 24.2C215.7 23.2 216 22.4 217.1 22.4H223.6C224.3 22.4 224.7 22.8 224.9 23.2L231 37.1C231.1 37.1 231.1 37.1 231.1 37.1L237.5 23.2C237.9 22.5 238.5 22.4 239.3 22.4H245.1C246.2 22.4 246.7 23.2 246.1 24.2L232.4 52.3C232.2 52.7 231.8 53 231.1 53H231C230.3 53 230 52.6 229.7 52.3L216.1 24.2Z" fill="url(#paint5_linear)"/>
<path d="M264.3 21.7C272 21.7 278.3 27.5 278.3 35.6C278.3 36.1 278.2 37.1 278.1 37.6C278 38.3 277.4 38.9 276.7 38.9H257.5C257.7 42 260.3 45.4 264.7 45.4C267 45.4 269.2 44.5 270.5 43.5C271.2 43.1 271.9 42.9 272.4 43.5L275.5 47C276 47.5 276.2 48.3 275.4 48.9C272.9 51.2 269.1 53 264.3 53C255.3 53 249 45.9 249 37.3C249.1 29 255.4 21.7 264.3 21.7ZM269.6 33.7C269.4 30.9 267 28.6 264.1 28.6C261.1 28.6 258.6 30.8 258.3 33.7H269.6Z" fill="url(#paint6_linear)"/>
<path d="M284.6 23.9C284.6 23.1 285.3 22.5 286 22.5H288.8C289.5 22.5 289.8 22.9 290.1 23.4L291.1 26.2C292.2 25 295.9 21.8 301.6 21.8C311.1 21.8 314.9 28.9 314.9 36.7V51.1C314.9 51.8 314.2 52.5 313.5 52.5H307.4C306.6 52.5 306 51.8 306 51.1V36.1C306 32.2 304 29.7 300.4 29.7C296.5 29.7 294.1 32.4 293.4 34.4V50.9C293.4 51.9 293 52.3 291.5 52.3H286C285.3 52.3 284.6 51.6 284.6 50.9V23.9Z" fill="url(#paint7_linear)"/>
<path d="M336 21.7C339 21.7 341.3 22.5 342.7 23V1.4C342.7 0.7 343.4 0 344.1 0H350.5C351.2 0 351.9 0.7 351.9 1.4V50.9C351.9 51.6 351.2 52.3 350.5 52.3H347.6C346.9 52.3 346.4 51.7 346.2 50.9L345.5 48.6C345.5 48.6 342 53.1 335.7 53.1C327.5 53.1 321.3 46 321.3 37.4C321.2 28.7 327.1 21.7 336 21.7ZM336.7 45C340.7 45 342.5 41.9 343 40.1V31.4C343 31.4 340.9 29.7 337.2 29.7C333 29.7 329.9 33.1 329.9 37.3C329.9 41.5 332.7 45 336.7 45Z" fill="url(#paint8_linear)"/>
<path d="M373.9 21.7C381.6 21.7 387.9 27.5 387.9 35.6C387.9 36.1 387.8 37.1 387.7 37.6C387.6 38.3 387 38.9 386.3 38.9H367.1C367.3 42 369.9 45.4 374.3 45.4C376.6 45.4 378.8 44.5 380.1 43.5C380.8 43.1 381.5 42.9 382 43.5L385.1 47C385.6 47.5 385.8 48.3 385 48.9C382.5 51.2 378.7 53 373.9 53C364.9 53 358.6 45.9 358.6 37.3C358.6 29 365 21.7 373.9 21.7ZM379.1 33.7C378.9 30.9 376.5 28.6 373.6 28.6C370.6 28.6 368.1 30.8 367.8 33.7H379.1Z" fill="url(#paint9_linear)"/>
<path d="M394.1 23.9C394.1 23.1 394.8 22.5 395.5 22.5H398.3C399 22.5 399.4 22.9 399.6 23.5L400.6 26.4C401.6 24.9 404.4 21.8 409.1 21.8C412.6 21.8 415.8 22.9 414.9 24.8L412.1 29.7C411.7 30.4 411 30.7 410.4 30.4C410.2 30.3 409.1 30 408.2 30C405.2 30 403.4 32 402.9 33.1V51.2C402.9 52.2 402.2 52.6 401.2 52.6H395.4C394.7 52.6 394 51.9 394 51.2V23.9H394.1Z" fill="url(#paint10_linear)"/>
<g clip-path="url(#clip1)">
<path d="M433.3 21.7C441.8 21.7 448.6 28.9 448.6 37.3C448.6 45.9 441.7 53.1 433.3 53.1C424.9 53.1 418 45.9 418 37.3C418 28.9 424.9 21.7 433.3 21.7ZM433.3 45C437.3 45 440.5 41.6 440.5 37.3C440.5 33.1 437.3 29.7 433.3 29.7C429.3 29.7 426.1 33.1 426.1 37.3C426.2 41.6 429.3 45 433.3 45Z" fill="#A7A9AC"/>
<path d="M455.3 23.9C455.3 23.1 456 22.5 456.7 22.5H459.5C460.2 22.5 460.5 22.9 460.8 23.4L461.8 26.2C462.9 25 466.6 21.8 472.3 21.8C481.8 21.8 485.6 28.9 485.6 36.7V51.1C485.6 51.8 484.9 52.5 484.2 52.5H478.1C477.3 52.5 476.7 51.8 476.7 51.1V36.1C476.7 32.2 474.7 29.7 471.1 29.7C467.2 29.7 464.8 32.4 464.1 34.4V50.9C464.1 51.9 463.7 52.3 462.2 52.3H456.7C456 52.3 455.3 51.6 455.3 50.9V23.9Z" fill="#A7A9AC"/>
<path d="M494.2 1.4C494.2 0.7 494.9 0 495.6 0H501.9C502.6 0 503.3 0.7 503.3 1.4V50.9C503.3 51.6 502.6 52.3 501.9 52.3H495.6C494.9 52.3 494.2 51.6 494.2 50.9V1.4Z" fill="#A7A9AC"/>
<path d="M511.6 6.7C511.6 3.9 513.8 1.5 516.7 1.5C519.6 1.5 521.9 3.8 521.9 6.7C521.9 9.6 519.6 11.9 516.7 11.9C513.8 11.8 511.6 9.5 511.6 6.7ZM512.3 23.9C512.3 23.1 513 22.5 513.7 22.5H519.9C520.6 22.5 521.3 23.1 521.3 23.9V51C521.3 51.7 520.6 52.4 519.9 52.4H513.7C513 52.4 512.3 51.7 512.3 51V23.9Z" fill="#A7A9AC"/>
<path d="M530.3 23.9C530.3 23.1 531 22.5 531.7 22.5H534.5C535.2 22.5 535.5 22.9 535.8 23.4L536.8 26.2C537.9 25 541.6 21.8 547.3 21.8C556.8 21.8 560.6 28.9 560.6 36.7V51.1C560.6 51.8 559.9 52.5 559.2 52.5H553.1C552.3 52.5 551.7 51.8 551.7 51.1V36.1C551.7 32.2 549.7 29.7 546.1 29.7C542.2 29.7 539.8 32.4 539.1 34.4V50.9C539.1 51.9 538.7 52.3 537.2 52.3H531.7C531 52.3 530.3 51.6 530.3 50.9V23.9Z" fill="#A7A9AC"/>
<path d="M582.1 21.7C589.8 21.7 596.1 27.5 596.1 35.6C596.1 36.1 596 37.1 595.9 37.6C595.8 38.3 595.2 38.9 594.5 38.9H575.3C575.5 42 578.1 45.4 582.5 45.4C584.8 45.4 587 44.5 588.3 43.5C589 43.1 589.7 42.9 590.2 43.5L593.3 47C593.8 47.5 594 48.3 593.2 48.9C590.7 51.2 586.9 53 582.1 53C573.1 53 566.8 45.9 566.8 37.3C566.9 29 573.2 21.7 582.1 21.7ZM587.4 33.7C587.2 30.9 584.8 28.6 581.9 28.6C578.9 28.6 576.4 30.8 576.1 33.7H587.4Z" fill="#A7A9AC"/>
</g>
</g>
<defs>
<linearGradient id="paint0_linear" x1="55.0577" y1="67.5359" x2="55.0577" y2="7.27872" gradientUnits="userSpaceOnUse">
<stop stop-color="#6FBE44"/>
<stop offset="1" stop-color="#0E9347"/>
</linearGradient>
<linearGradient id="paint1_linear" x1="27.092" y1="64.4639" x2="27.092" y2="10.3506" gradientUnits="userSpaceOnUse">
<stop stop-color="#6FBE44"/>
<stop offset="1" stop-color="#0E9347"/>
</linearGradient>
<linearGradient id="paint2_linear" x1="102.875" y1="37.7813" x2="400.877" y2="37.7813" gradientUnits="userSpaceOnUse">
<stop stop-color="#0E9347"/>
<stop offset="1" stop-color="#6FBE44"/>
</linearGradient>
<linearGradient id="paint3_linear" x1="102.875" y1="37.4072" x2="400.877" y2="37.4072" gradientUnits="userSpaceOnUse">
<stop stop-color="#0E9347"/>
<stop offset="1" stop-color="#6FBE44"/>
</linearGradient>
<linearGradient id="paint4_linear" x1="102.875" y1="37.0332" x2="400.877" y2="37.0332" gradientUnits="userSpaceOnUse">
<stop stop-color="#0E9347"/>
<stop offset="1" stop-color="#6FBE44"/>
</linearGradient>
<linearGradient id="paint5_linear" x1="102.875" y1="37.7813" x2="400.877" y2="37.7813" gradientUnits="userSpaceOnUse">
<stop stop-color="#0E9347"/>
<stop offset="1" stop-color="#6FBE44"/>
</linearGradient>
<linearGradient id="paint6_linear" x1="102.875" y1="37.4072" x2="400.877" y2="37.4072" gradientUnits="userSpaceOnUse">
<stop stop-color="#0E9347"/>
<stop offset="1" stop-color="#6FBE44"/>
</linearGradient>
<linearGradient id="paint7_linear" x1="102.875" y1="37.0332" x2="400.877" y2="37.0332" gradientUnits="userSpaceOnUse">
<stop stop-color="#0E9347"/>
<stop offset="1" stop-color="#6FBE44"/>
</linearGradient>
<linearGradient id="paint8_linear" x1="102.875" y1="26.5591" x2="400.877" y2="26.5591" gradientUnits="userSpaceOnUse">
<stop stop-color="#0E9347"/>
<stop offset="1" stop-color="#6FBE44"/>
</linearGradient>
<linearGradient id="paint9_linear" x1="102.875" y1="37.4072" x2="400.877" y2="37.4072" gradientUnits="userSpaceOnUse">
<stop stop-color="#0E9347"/>
<stop offset="1" stop-color="#6FBE44"/>
</linearGradient>
<linearGradient id="paint10_linear" x1="102.875" y1="37.0332" x2="400.877" y2="37.0332" gradientUnits="userSpaceOnUse">
<stop stop-color="#0E9347"/>
<stop offset="1" stop-color="#6FBE44"/>
</linearGradient>
<clipPath id="clip0">
<rect width="610.2" height="67.5" fill="white"/>
</clipPath>
<clipPath id="clip1">
<rect width="178.1" height="53.1" fill="white" transform="translate(418)"/>
</clipPath>
</defs>
</svg>
