<svg width="139" height="102" viewBox="0 0 139 102" fill="none" xmlns="http://www.w3.org/2000/svg">
<path d="M62.8448 100.239C62.8448 100.239 63.0129 100.239 62.8448 100.239L132.752 61.7563C132.92 61.5883 133.088 61.5883 133.424 61.4202C136.785 59.2356 138.465 55.7067 138.465 51.6736V50.6653C138.465 46.6323 136.617 43.1033 133.424 40.9187C133.256 40.7507 133.088 40.5826 132.752 40.5826L63.1809 1.93228C59.82 -0.0842558 55.955 -0.0842553 52.7621 1.59619C49.4012 3.44469 47.5527 6.97364 47.5527 11.3428V22.2657L54.9467 25.9627V11.3428C54.9467 8.14995 56.9633 6.97364 59.4839 8.318L129.391 46.9684C130.399 47.6405 131.239 48.6488 131.239 50.4973V51.5056C131.239 53.3541 130.231 54.5304 129.391 55.0345L59.4839 93.6849C57.1313 95.0292 54.9467 93.8529 54.9467 90.6601V76.2082L47.5527 79.9052V90.6601C47.5527 94.8612 49.4012 98.2221 52.426 100.239C55.4509 102.087 59.3159 102.087 62.8448 100.239Z" fill="url(#paint0_linear)"/>
<path d="M84.1864 51.6736C84.1864 53.354 83.1782 54.1943 82.3379 54.8664L12.4312 88.6435C10.0786 89.8198 7.89398 88.8115 7.89398 86.1228V69.9905C7.89398 68.142 8.90225 67.1337 9.91052 66.6296L44.5278 51.5055C44.5278 51.3375 44.5278 51.1695 44.5278 51.1695L9.91052 35.0371C8.06203 34.0289 7.89398 32.6845 7.89398 30.4999V16.048C7.89398 13.1913 9.91052 12.183 12.4312 13.5274L82.3379 47.4725C83.3462 47.9766 84.1864 48.9849 84.1864 50.6653V51.6736ZM91.5804 51.6736V50.6653C91.5804 46.6322 89.5639 43.2713 86.0349 41.0868C85.8669 40.9187 85.6988 40.9187 85.5308 40.7507L15.7921 6.80556C12.2632 4.95707 8.56616 4.95707 5.37331 6.80556C2.3485 8.8221 0.5 12.183 0.5 16.048V30.4999C0.5 32.5165 0.5 38.5661 6.71767 41.5909C6.71767 41.5909 6.88571 41.5909 6.88571 41.7589L26.715 51.0014L7.05376 59.5717C6.88571 59.5717 6.88571 59.7397 6.71767 59.7397C2.68459 61.7563 0.5 65.4533 0.5 69.8224V85.9548C0.5 89.8198 2.18045 93.0127 5.03722 94.8612C8.06203 96.7097 11.759 96.8777 15.456 95.1973H15.6241L85.5308 61.4202C85.6988 61.2522 85.8669 61.2522 86.203 61.0841C89.5639 59.0676 91.5804 55.5386 91.5804 51.6736Z" fill="url(#paint1_linear)"/>
<defs>
<linearGradient id="paint0_linear" x1="93.0219" y1="101.643" x2="93.0219" y2="0.384089" gradientUnits="userSpaceOnUse">
<stop stop-color="#6FBE44"/>
<stop offset="1" stop-color="#0E9347"/>
</linearGradient>
<linearGradient id="paint1_linear" x1="46.0268" y1="96.4809" x2="46.0268" y2="5.54623" gradientUnits="userSpaceOnUse">
<stop stop-color="#6FBE44"/>
<stop offset="1" stop-color="#0E9347"/>
</linearGradient>
</defs>
</svg>
