<svg width="31" height="25" viewBox="0 0 31 25" fill="none" xmlns="http://www.w3.org/2000/svg">
<path d="M13.8484 24.5569C13.8484 24.5569 13.8858 24.5569 13.8484 24.5569L29.3766 15.4392C29.4139 15.3993 29.4512 15.3993 29.5259 15.3595C30.2724 14.8419 30.6457 14.0058 30.6457 13.0502V12.8113C30.6457 11.8558 30.2351 11.0196 29.5259 10.502C29.4886 10.4622 29.4512 10.4224 29.3766 10.4224L13.9231 1.26485C13.1766 0.787061 12.318 0.787061 11.6088 1.18522C10.8623 1.62319 10.4517 2.45931 10.4517 3.49451V6.08252L12.0941 6.95846V3.49451C12.0941 2.73802 12.542 2.45931 13.1019 2.77783L28.63 11.9354C28.854 12.0947 29.0406 12.3335 29.0406 12.7715V13.0104C29.0406 13.4484 28.8167 13.7271 28.63 13.8465L13.1019 23.0041C12.5793 23.3226 12.0941 23.0439 12.0941 22.2874V18.8633L10.4517 19.7392V22.2874C10.4517 23.2828 10.8623 24.0791 11.5342 24.5569C12.206 24.9949 13.0646 24.9949 13.8484 24.5569Z" fill="white"/>
<path d="M18.589 13.0503C18.589 13.4485 18.365 13.6476 18.1784 13.8068L2.65024 21.8097C2.12765 22.0884 1.6424 21.8495 1.6424 21.2125V17.3902C1.6424 16.9522 1.86636 16.7133 2.09033 16.5939L9.77975 13.0105C9.77975 12.9707 9.77975 12.9309 9.77975 12.9309L2.09033 9.10863C1.67973 8.86973 1.6424 8.55121 1.6424 8.03361V4.6095C1.6424 3.93264 2.09033 3.69375 2.65024 4.01227L18.1784 12.055C18.4023 12.1744 18.589 12.4133 18.589 12.8114V13.0503ZM20.2314 13.0503V12.8114C20.2314 11.8559 19.7835 11.0596 18.9996 10.542C18.9623 10.5022 18.9249 10.5022 18.8876 10.4623L3.39678 2.41966C2.61291 1.98169 1.79171 1.98169 1.08249 2.41966C0.4106 2.89745 0 3.69375 0 4.6095V8.03361C0 8.5114 0 9.94475 1.38111 10.6614C1.38111 10.6614 1.41844 10.6614 1.41844 10.7012L5.82306 12.8911L1.45576 14.9217C1.41844 14.9217 1.41844 14.9615 1.38111 14.9615C0.485255 15.4393 0 16.3152 0 17.3504V21.1727C0 22.0884 0.373273 22.8449 1.00784 23.2829C1.67973 23.7208 2.50093 23.7606 3.32213 23.3625H3.35946L18.8876 15.3596C18.9249 15.3198 18.9623 15.3198 19.0369 15.28C19.7835 14.8022 20.2314 13.9661 20.2314 13.0503Z" fill="white"/>
</svg>
